<?xml version="1.0" encoding="UTF-8"?>
<svg width="1200pt" height="1200pt" version="1.1" viewBox="0 0 1200 1200" xmlns="http://www.w3.org/2000/svg">
 <defs>
  <clipPath id="a">
   <path d="m223 263h754.86v714.86h-754.86z"/>
  </clipPath>
 </defs>
 <rect width="1200" height="1200" fill="#1c3d76"/>
 <path d="m726.41 349.98c3.5508-3.5273 3.5508-9.2773 0-12.82-3.5352-3.5508-9.2773-3.5508-12.832 0l-7.6328 7.6406c5.6523 2.9648 11.023 6.1719 16.039 9.6328z" fill="#fff6df"/>
 <g clip-path="url(#a)">
  <path d="m977.87 688.18c1.3359 2.5195 2.7617 5.082-2.6797 5.1484-2.4023-3.2812-9.2031-4.332-12.863-5.1641-5.2969-1.2188-10.648-2.2656-16.004-3.2734 0.61328-4.4492-0.37109-8.6992-4.5508-10.496-1.6445-0.69531-3.9453-1.418-5.8008-1.2852-0.050781 0-8.7656 0.64844-17.246 1.2695-1.7461-5.7617-7.8086-8.0352-13.109-10.328-7.7773-3.3594-16.414-3.293-24.375-0.46094-2.1992 0.77344-4.3828 1.6953-6.3906 2.8633-0.79688 0.46875-1.5117 1.2344-2.3008 1.6445-2.4023-33.016-20.48-64.438-36.652-86.402-5.1211-60.879-30.59-111.86-46.652-138.64l24.719-10.547c5.8008-2.4844 9.957-6.8438 11.32-11.234 0.35938-0.015625 0.73828-0.066406 1.1328-0.17578 4.3828-1.1016 7.6328-5.4062 10.52-8.582 6.5234-7.2461 10.57-15.953 13.418-25.199 1.9414-6.2891 3.293-13.156 3.5508-19.742 0.082031-2.125 0.52734-4.4844-0.53906-6.4492-1.1016-2.0391-3.4414-3.0156-5.0977-4.5078-1.3594-1.2422-2.0391-3.082-2.2773-5.1406 0.89844 0.57031 2.7695-0.035156 2.7695-0.035156 3.2734-1.1016 7.2031-1.1758 10.629-1.8398 4.2891-0.82422 8.5664-1.7305 12.781-2.8281 4.2891-1.1172 9.1953-2.3086 12.395-5.5078 0.77344-0.78906 1.3789-1.6523 1.8125-2.5938 7.3203 0.074219 14.98 0.14453 14.98 0.14453 2.5273 0.015625 5.7031-0.41797 7.9453-1.6367 2.2578-1.2266 3.9375-4.2578 3.9883-6.7578 0.023438-1.6797-0.3125-3.8047-0.98437-6.0117 1.4766-0.51953 2.957-1.0156 4.418-1.5469 6.0273-2.207 12.199-3.9453 18.289-6.0117 0.74609-0.25 1.4766-0.58594 2.1328-0.97266h0.25c7.6406 0.16797 5.7852 2.8867 4.082 5.5352 1.9805-0.77344 2.8555-1.9805 1.7227-3.9727-0.83203-1.4688-2.5273-2.9961-4.2812-3.2734 0.46094-0.81641 0.58594-1.8203 0.17578-3.0664-0.48047-1.418-1.1836-2.375-2.0312-2.9805 0.62109-1.1758 0.91406-2.6289 0.84766-3.8047-0.15234-2.293-1.5352-2.8281-3.6094-2.3828 2.5703 1.1328 5.2305 2.2578 1.3516 5.5508-3.8203-1.082-9.3555 2.168-12.543 3.7109-4.5781 2.207-9.0938 4.5938-13.586 6.9961-2.3945-3.7852-5.8203-6.4805-9.957-5.3477-1.6367 0.41797-3.7539 1.2266-5.0039 2.4453-0.035156 0.035156-5.8789 5.7188-11.555 11.227-4.9297-3.3828-10.746-1.5039-16.039-0.10938-7.7266 2.0586-13.898 7.2383-17.816 14.148-1.082 1.9141-2.0586 3.9297-2.7461 6.0273-0.21875 0.67969-0.3125 1.4961-0.51172 2.207 0.10938-2.6797 0.73828-5.4062 1.418-7.2969 1.2852-3.5117-2.3828-1.9492-2.3828-1.9492-3.3242 1.4102-6.5156 2.8125-9.5039 4.8867-2.8047 1.9648-4.0312 5.0547-5.582 7.9922-1.3281 2.5039-2.3516 5.1484-3.0898 7.875-2.293 8.4727-2.0977 17.758 0.023438 26.25 0.93359 3.7773 2.7461 7.2227 3.8789 10.875 1.0742 3.4414 0.91406 7.0547-1.9648 9.4805-2.4453 2.082-5.625 2.6289-8.7227 2.2422-0.83984-0.09375-1.7031-0.20312-2.418 0.042969-3.7617-0.86328-8.3711-0.44531-12.879 1.4844l-25.762 11.008c-0.96484 0.41797-1.8906 0.89844-2.7461 1.4023-0.050781-0.042969-0.082031-0.09375-0.10937-0.13281l-0.73828-0.97266-0.92188-0.78906c-2.7031-2.3164-6.7109-4.9297-13.77-7.2617-5.3477-23.102-21.195-43.738-44.066-59.523-5.0039-3.4609-10.363-6.668-16.02-9.6328-11.469-6.0273-24.184-10.992-37.82-14.645 0.10938-0.37109 0.21875-0.73828 0.26953-1.1172 0.15234-0.99219 0.10156-1.9648-0.14453-2.8711 1.5781-0.41797 2.8477-1.7305 3.0977-3.4609l0.21875-1.4688c0.035156-0.18359 0.015625-0.37109 0.035156-0.55469 0.17578 0.058593 0.35156 0.10937 0.53906 0.15234 2.2852 0.34375 4.4258-1.2344 4.7695-3.5352l0.22656-1.4688c0.023437-0.20312 0.023437-0.41797 0.023437-0.62109 0.18359 0.050781 0.39453 0.10938 0.57812 0.125 2.3086 0.29297 4.3984-1.3438 4.7031-3.6602l0.17578-1.4688c0.023437-0.26172 0.023437-0.49609 0.015624-0.73828 0.21094 0.042968 0.41016 0.09375 0.62109 0.09375 2.3164 0.15234 4.3086-1.6367 4.4336-3.9531l0.074219-1.4844c0.015625-0.16797 0-0.3125-0.023438-0.48047 0.21094 0.035156 0.42969 0.058594 0.64844 0.058594 2.4258-0.035157 4.375-2.0391 4.3398-4.4844l-0.023437-1.5625c-0.007813-0.16797-0.042969-0.29297-0.050781-0.4375 0.16797 0 0.32031 0 0.48828-0.015625 2.5352-0.40234 4.2578-2.7617 3.8711-5.2734l-0.23438-1.5703c0.050781 0 0.11719-0.015625 0.16797-0.015625 2.6602-0.82422 4.1719-3.6367 3.3594-6.2969l-0.43359-1.3164c8.5469-5.8945 9.4648-15.031 9.4648-15.031-0.41797-4.7852-8.8906-3.7617-8.8906-3.7617-9.6562 3.1914-7.7148 12.949-7.7148 12.949-0.10156 0.94922-0.10938 1.7383-0.10156 2.4609-2.1289 1.0898-3.2539 3.5742-2.5312 5.9492l0.41797 1.4023c-1.9883 0.77344-3.2656 2.8281-2.9297 5.0391l0.24219 1.6211v0.015625c-2.2656 0.21875-4.0312 2.1328-3.9883 4.4688l0.015625 1.5625c0 0.10938 0.035156 0.21875 0.035156 0.35156-0.035156-0.015625-0.066406-0.015625-0.125-0.015625-2.3086-0.15234-4.3086 1.6367-4.4336 3.9727l-0.066406 1.4688c-0.015625 0.16797 0 0.3125 0.015625 0.46094-0.13281-0.015625-0.23438-0.074219-0.37109-0.074219-2.293-0.29297-4.4102 1.3438-4.6836 3.6523l-0.18359 1.4688c-0.015625 0.18359 0 0.35156-0.007813 0.51953-0.16016-0.050781-0.30078-0.09375-0.48047-0.13281-2.2852-0.35156-4.4336 1.2266-4.7773 3.5273l-0.21875 1.4688c-0.023438 0.18359-0.023438 0.37109-0.023438 0.54688-0.17578-0.035157-0.35156-0.10938-0.52734-0.125-2.293-0.35156-4.4492 1.2266-4.793 3.5273l-0.15234 1.0508c-0.24219-0.058593-0.48828-0.15234-0.73828-0.18359l-0.97266-0.15234c-3.9141-0.58594-7.5742 2.1172-8.1797 6.0273v0.015625c-13.234-2.5195-27.148-3.8945-41.547-3.8945-1.4453 0-2.8789 0.050782-4.3164 0.074219-1.4375-0.023437-2.8711-0.074219-4.332-0.074219-14.391 0-28.324 1.3789-41.555 3.8945v-0.015625c-0.58594-3.9141-4.25-6.6172-8.1719-6.0273l-0.97266 0.15234c-0.26172 0.035156-0.48828 0.125-0.72266 0.18359l-0.16797-1.0508c-0.34375-2.293-2.4844-3.8711-4.7852-3.5273-0.19141 0.015624-0.35156 0.09375-0.53906 0.125 0-0.17578 0-0.35938-0.023438-0.54688l-0.21875-1.4688c-0.34375-2.3008-2.4922-3.8789-4.7852-3.5273-0.16016 0.035156-0.3125 0.074219-0.46875 0.13281 0-0.16797 0.007813-0.33594-0.007812-0.51953l-0.18359-1.4688c-0.27734-2.3086-2.375-3.9453-4.6953-3.6523-0.125 0-0.23438 0.050782-0.35938 0.074219 0-0.15234 0.035157-0.29297 0.015626-0.46094l-0.074219-1.4688c-0.125-2.3359-2.1172-4.1133-4.4414-3.9727-0.035156 0-0.074218 0-0.125 0.015625 0.007813-0.13281 0.042969-0.23438 0.042969-0.35156l0.023438-1.5625c0.042969-2.3359-1.7305-4.25-4.0039-4.4688l0.007813-0.015625 0.24219-1.6211c0.34375-2.207-0.93359-4.2656-2.9297-5.0391l0.41797-1.4023c0.72266-2.375-0.40234-4.8711-2.5352-5.9531 0.015624-0.72266 0-1.5195-0.09375-2.4609 0 0 1.9297-9.7578-7.7148-12.949 0 0-8.4727-1.0234-8.8906 3.7617 0 0 0.92188 9.1367 9.4727 15.031l-0.41016 1.3516c-0.80469 2.6602 0.69531 5.4766 3.3516 6.2969 0.066407 0 0.11719 0.015625 0.17578 0.015625l-0.23437 1.5664c-0.38672 2.5195 1.3359 4.8711 3.8633 5.2734 0.16797 0.015626 0.33594 0.015626 0.49609 0.015626-0.015624 0.14453-0.042968 0.27734-0.042968 0.4375l-0.035156 1.5625c-0.042969 2.4453 1.9062 4.4492 4.3477 4.4844 0.21094 0 0.41797-0.015624 0.62891-0.058593-0.007812 0.16797-0.035156 0.3125-0.015625 0.48047l0.082031 1.4844c0.125 2.3164 2.1094 4.0977 4.4336 3.9531 0.21875 0 0.41797-0.050782 0.62891-0.09375-0.007812 0.24219-0.007812 0.48047 0.015625 0.73828l0.17578 1.4688c0.29297 2.3164 2.3945 3.9531 4.7031 3.6602 0.20312-0.015625 0.39453-0.074219 0.57812-0.125 0 0.20312 0 0.41797 0.035157 0.62109l0.21875 1.4688c0.35156 2.3008 2.4922 3.8789 4.7852 3.5352 0.18359-0.042969 0.35938-0.09375 0.53906-0.15234 0 0.18359 0 0.37109 0.023437 0.55469l0.21875 1.4688c0.26172 1.7305 1.5195 3.0312 3.0977 3.4609-0.23438 0.89844-0.29297 1.8828-0.14453 2.8711 0.050781 0.37891 0.16797 0.74609 0.27734 1.1172-13.637 3.6523-26.348 8.6133-37.82 14.645-5.6523 2.9648-11.023 6.1719-16.039 9.6328-22.855 15.785-38.711 36.426-44.066 59.523-7.0469 2.3359-11.051 4.9375-13.762 7.2617l-0.92188 0.78906-0.73047 0.97266c-0.015625 0.035156-0.066406 0.09375-0.09375 0.13281-0.875-0.49609-1.7891-0.97266-2.7617-1.4023l-25.77-11.008c-4.5078-1.9297-9.1094-2.3516-12.891-1.4844-0.70703-0.24219-1.5703-0.13281-2.4023-0.042969-3.1133 0.38672-6.2969-0.16016-8.7422-2.2422-2.8789-2.4258-3.0391-6.0469-1.9648-9.4805 1.1328-3.6602 2.9492-7.0938 3.8867-10.875 2.1172-8.4883 2.3086-17.777 0.015625-26.25-0.73047-2.7383-1.7617-5.3828-3.0898-7.875-1.5469-2.9375-2.7891-6.0273-5.5938-7.9922-2.9727-2.0742-6.1719-3.4766-9.4961-4.8867 0 0-3.6797-1.5625-2.3945 1.9492 0.6875 1.8906 1.3086 4.6094 1.418 7.2969-0.19141-0.71484-0.27734-1.5273-0.51172-2.207-0.69531-2.0977-1.6719-4.1133-2.7539-6.0273-3.9219-6.9102-10.078-12.09-17.816-14.148-5.2734-1.3945-11.109-3.2734-16.031 0.10937-5.6836-5.5078-11.52-11.191-11.555-11.227-1.25-1.2188-3.3672-2.0234-4.9961-2.4453-4.1484-1.1328-7.5742 1.5625-9.9766 5.3477-4.4922-2.4102-9-4.793-13.586-6.9961-3.1758-1.5469-8.7344-4.793-12.535-3.7109-3.8594-3.3086-1.1836-4.4336 1.3945-5.5664-2.082-0.44531-3.4844 0.089844-3.6172 2.3828-0.078125 1.1836 0.21094 2.6289 0.83984 3.8047-0.85547 0.60547-1.5703 1.5625-2.0391 2.9805-0.41016 1.2422-0.28516 2.2578 0.16797 3.0664-1.7305 0.27734-3.4414 1.7969-4.2656 3.2734-1.1328 1.9805-0.25 3.1992 1.7227 3.9727-1.7148-2.6445-3.5703-5.3672 4.082-5.5352h0.26172c0.66406 0.38672 1.3867 0.72266 2.1328 0.97266 6.0781 2.0664 12.258 3.8047 18.289 6.0117 1.4688 0.52734 2.9492 1.0312 4.4102 1.5469-0.66406 2.207-1.0156 4.332-0.97266 6.0117 0.042969 2.4922 1.7148 5.5234 3.9805 6.7578 2.2422 1.2188 5.4258 1.6523 7.9453 1.6367 0 0 7.6562-0.066407 14.973-0.14453 0.44531 0.93359 1.0508 1.7969 1.8203 2.5938 3.1992 3.1992 8.1133 4.3906 12.387 5.5078 4.2148 1.1016 8.5078 2.0078 12.789 2.8281 3.4102 0.66406 7.3477 0.73828 10.621 1.8398 0 0 1.8711 0.60547 2.7891 0.035156-0.24219 2.0586-0.92187 3.8945-2.293 5.1406-1.6641 1.4961-4.0039 2.4609-5.0977 4.5078-1.0664 1.9648-0.62109 4.3242-0.53906 6.4492 0.25 6.582 1.6055 13.453 3.5352 19.742 2.8555 9.2461 6.8945 17.953 13.418 25.199 2.8789 3.1758 6.1445 7.4805 10.531 8.582 0.39453 0.10938 0.76562 0.16797 1.125 0.17578 1.3594 4.3906 5.5078 8.75 11.328 11.234l24.703 10.547c-16.062 26.77-41.516 77.754-46.652 138.64-16.156 21.965-34.25 53.387-36.652 86.402-0.78906-0.41016-1.5117-1.1836-2.3008-1.6445-2-1.168-4.1797-2.0898-6.3828-2.8633-7.9609-2.8281-16.602-2.9062-24.367 0.46094-5.3164 2.293-11.371 4.5781-13.125 10.328-8.4805-0.62109-17.188-1.2695-17.238-1.2695-1.8633-0.13281-4.1641 0.58594-5.8008 1.2852-4.1914 1.7969-5.1641 6.0469-4.5508 10.496-5.3555 1.0078-10.707 2.0586-15.996 3.2734-3.6797 0.83984-10.473 1.8906-12.871 5.1641-5.457-0.066407-4.0234-2.6289-2.6797-5.1484-2.0156 0.99219-2.7969 2.2773-1.3516 4.1328 0.74609 0.97266 1.9727 1.9141 3.3086 2.4102-0.29297 1.0078-0.22656 2.207 0.35938 3.5859 0.51172 1.2266 1.3008 1.9219 2.2422 2.2578-1.2578 1.3008-1.6055 3.5859-1.3008 5.2383 0.41797 2.2578 1.9727 2.6289 4.1406 1.9648-3.2227-0.95703-6.6172-1.8555-0.41797-6.8672 0.09375-0.082031 0.15234-0.11719 0.21875-0.16797 0.79688-0.11719 1.6211-0.33594 2.418-0.60547 6.4219-2.3008 12.711-4.9141 19.195-7.0703 1.5781-0.51172 3.1406-1.0586 4.7031-1.6133 0.94922 2.1172 2.125 3.9805 3.3008 5.2461 1.7461 1.8906 5.207 3.1562 7.9102 2.6602 2.6797-0.48828 5.6016-2.1758 7.6758-3.8047 0 0 6.2656-4.9531 12.258-9.6641 0.99219 0.44531 2.082 0.71484 3.25 0.83203 4.8438 0.4375 9.707-1.8047 13.988-3.668 4.25-1.8555 8.3984-3.8711 12.504-5.9961 3.2656-1.6445 6.5664-4.1055 10.008-5.3555 0 0 2.6211-0.95703 2.3672-2.2266 3.6797 2.9375 13.938 7.4727 25.785-19.398l9.707-22.637c0.98438 9.8906 2.5938 19.902 4.9609 30.043 8.1953 35.047 24.469 67.484 48.645 97.16-0.6875 5.4336-1.1016 10.891-1.168 16.391-0.32031 28.164 7.2539 55.781 20.941 80.34 4.7461 8.5156 10.328 16.617 17.363 23.41 2.9648 2.8984 10.395 11.621 16.516 14.52-2.418-0.015626-4.8789 0.26953-7.2891 0.71484-8.8906 1.5938-16.961 6.1719-22.418 13.527-3.7188 5.0195-8.1875 10.438-6.7695 16.793-8.2031 3.9805-16.625 8.0117-16.684 8.0508-1.7969 0.86328-3.5508 2.7891-4.7031 4.3398-2.9492 3.9297-1.6133 8.4727 1.3086 12.328-4.4414 3.8477-8.8672 7.707-13.148 11.695-2.9727 2.7812-8.7422 7.4062-9.2539 11.781-5.0977 2.8789-5.1211-0.33594-5.2148-3.418-1.3359 2.0234-1.3945 3.6602 0.93359 4.6367 1.2109 0.51172 2.8398 0.73047 4.3398 0.49609 0.26172 1.1094 0.96484 2.1914 2.2422 3.1992 1.1328 0.88281 2.2344 1.125 3.2734 0.93359-0.46875 1.9141 0.40234 4.25 1.5703 5.625 1.5938 1.9141 3.2148 1.418 4.8867-0.37109-3.5 0.84766-7.1445 1.8047-4.0234-6.2461 0.035156-0.09375 0.074218-0.17578 0.11719-0.25 0.6875-0.54688 1.3438-1.2266 1.9297-1.8984 4.7617-5.625 9.2266-11.445 14.125-16.969 1.1836-1.3359 2.3438-2.6953 3.5117-4.0547 2.0156 1.4961 4.082 2.6289 5.8438 3.1836 2.6211 0.84766 6.5156 0.19141 8.7656-1.7148 2.2344-1.9141 4.0547-5.0703 5.1133-7.7148 0 0 3.2227-8.0273 6.2969-15.711 1.1602-0.13281 2.3242-0.44531 3.4688-0.96484 4.7266-2.1914 8.0625-6.918 11.066-10.984 2.9727-4.0039 5.7617-8.1602 8.4648-12.352 2.1484-3.3164 3.9141-7.4062 6.4648-10.438 0 0 2.125-2.5352 0.85547-3.5273 12.637-4.4258-10.68-41.969-13.855-48.594-6.543-13.637-12.906-27.457-20.078-40.758-5.7852-10.773-12.504-22.035-14.352-33.891 30.398 33.352 71.297 63.012 122.49 88.754l0.93359 0.41016c8.1523 3.2148 28.086 10.672 37.039 10.672 4.3008 0 7.2109-1.418 9.1953-3.1055 1.9727 1.6875 4.8945 3.1055 9.168 3.1055 8.9688 0 28.902-7.4648 37.055-10.672l0.92188-0.41016c51.203-25.746 92.105-55.41 122.5-88.754-1.8477 11.855-8.5742 23.117-14.367 33.891-7.1719 13.301-13.52 27.113-20.07 40.758-3.1836 6.625-26.508 44.168-13.855 48.594-1.2695 0.99219 0.86328 3.5273 0.86328 3.5273 2.543 3.0312 4.3086 7.1289 6.4727 10.438 2.7031 4.1914 5.4844 8.3477 8.4453 12.352 3.0078 4.0547 6.3477 8.793 11.082 10.984 1.1484 0.52734 2.293 0.83984 3.4609 0.96484 3.0742 7.6836 6.3047 15.711 6.3047 15.711 1.043 2.6445 2.8711 5.8008 5.0977 7.7148 2.2656 1.9141 6.1562 2.5625 8.7734 1.7148 1.7617-0.55469 3.8359-1.6875 5.8359-3.1836 1.1836 1.3594 2.3359 2.7188 3.5195 4.0547 4.8945 5.5156 9.3633 11.344 14.125 16.969 0.58594 0.67187 1.2266 1.3438 1.9297 1.8984 0.035156 0.074219 0.074218 0.16797 0.10938 0.25 3.1055 8.0508-0.51172 7.0938-4.0234 6.2461 1.6797 1.7891 3.3008 2.2773 4.8945 0.37109 1.1602-1.3789 2.0391-3.7109 1.5703-5.625 1.043 0.18359 2.1406-0.050781 3.2656-0.93359 1.2852-1.0078 1.9805-2.0898 2.2578-3.1992 1.4961 0.23438 3.1328 0.015625 4.3398-0.49609 2.3164-0.97266 2.2656-2.6133 0.91406-4.6367-0.074219 3.082-0.10938 6.2969-5.1992 3.418-0.51172-4.375-6.2812-9-9.2617-11.781-4.2812-3.9883-8.6914-7.8516-13.133-11.695 2.9219-3.8555 4.2656-8.3984 1.3008-12.328-1.168-1.5547-2.9062-3.4766-4.7109-4.3398-0.058593-0.042969-8.4727-4.0742-16.684-8.0508 1.4258-6.3555-3.0312-11.773-6.7695-16.793-5.457-7.3555-13.52-11.934-22.418-13.527-2.4102-0.44531-4.8633-0.73047-7.2891-0.71484 6.1289-2.9062 13.562-11.629 16.535-14.52 7.0195-6.8008 12.613-14.895 17.348-23.41 13.703-24.57 21.262-52.188 20.949-80.34-0.066407-5.5-0.48047-10.957-1.1836-16.391 24.191-29.676 40.457-62.109 48.652-97.16 2.3672-10.145 3.9883-20.152 4.9727-30.043l9.707 22.637c11.84 26.863 22.117 22.328 25.785 19.398-0.26172 1.2578 2.3594 2.2266 2.3594 2.2266 3.4414 1.2422 6.7578 3.7031 10 5.3555 4.1133 2.125 8.2539 4.1406 12.504 5.9961 4.2891 1.8633 9.1445 4.0977 13.988 3.668 1.168-0.11719 2.2578-0.38672 3.2656-0.83203 5.9883 4.7188 12.25 9.6641 12.25 9.6641 2.0664 1.6289 4.9961 3.3242 7.6758 3.8047 2.7109 0.49609 6.1641-0.78125 7.9102-2.6602 1.168-1.2695 2.3242-3.1328 3.293-5.2461 1.5625 0.55469 3.125 1.1094 4.7109 1.6133 6.4805 2.1562 12.762 4.7617 19.18 7.0703 0.78906 0.26953 1.6211 0.49609 2.4336 0.60547 0.066406 0.050781 0.125 0.082031 0.21094 0.16797 6.1953 5.0195 2.8125 5.9102-0.41797 6.8672 2.168 0.65625 3.7031 0.28516 4.1328-1.9648 0.3125-1.6523-0.050781-3.9375-1.293-5.2383 0.93359-0.32812 1.7305-1.0234 2.2422-2.2578 0.57812-1.3789 0.65625-2.5781 0.35938-3.5859 1.3164-0.50391 2.5625-1.4375 3.3086-2.4102 1.4531-1.875 0.64844-3.1523-1.3594-4.1445zm-376.11-273.73h4.6758l-4.543 4.8516-4.543-4.8516zm-37.402 420.8c-25.895-13.059-48.953-27.113-69.156-42.137 16.414 6.7695 32.648 5.375 40.137-4.793 9.7422-13.191 1.0508-36.141-19.414-51.238-20.473-15.105-44.941-16.625-54.688-3.4336-6.3047 8.5547-4.8516 21.184 2.5039 33.117-35.805-33.949-58.812-72.137-68.695-114.22-6.9766-29.691-6.7266-58.785-2.5938-85.504 3.2344 15.594 11.043 26.602 20.195 26.602 12.023 0 21.781-19.062 21.781-42.562 0-23.52-9.7578-42.57-21.781-42.57-1.7227 0-3.3828 0.41797-4.9883 1.1484 14.5-38.945 33.066-66.191 37.215-72.02 3.7695-2.4766 17.215-7.9609 62.152-7.9609 32.285 0 66.043 2.9062 77.562 3.9883l4.2578 4.5586 0.035156 1.7148c-4.4922-1.9492-9.3867-3.0469-14.52-3.0469-21.688 0-39.281 19.062-39.281 42.582 0 23.504 17.582 42.555 39.281 42.555 5.7695 0 11.227-1.3789 16.172-3.8047l0.11719 5.8203-6.6836 318.04c-5.5508-1.6719-12.773-4.1758-19.609-6.8281zm244.39-182.7c-10.461 44.527-35.609 84.684-75.051 120.08 10.789-13.512 13.938-29.02 6.6016-38.988-9.75-13.191-34.219-11.672-54.707 3.4336-20.453 15.098-29.145 38.039-19.398 51.238 8.4141 11.41 27.836 11.781 46.176 1.9297-21.102 16.098-45.41 31.109-72.941 44.988-6.8281 2.6523-14.055 5.1562-19.613 6.8281l-6.7109-318.02 0.074219-3.4023c4.5938 1.9219 9.582 3.0312 14.812 3.0312 22.141 0 40.094-19.062 40.094-42.582 0-23.504-17.961-42.582-40.094-42.582-4.6016 0-9.0117 0.88281-13.125 2.3828l0.050781-2.6797 4.2734-4.5586c11.512-1.082 45.266-3.9883 77.555-3.9883 44.949 0 58.391 5.4766 62.16 7.9609 4.207 5.9375 23.27 33.906 37.852 73.766-2.4336-1.8555-5.0898-2.9062-7.875-2.9062-12.023 0-21.781 19.051-21.781 42.57 0 23.504 9.7578 42.562 21.781 42.562 10.438 0 19.145-14.332 21.277-33.461 5.2148 28.613 6.1719 60.145-1.4102 92.395z" fill="#fff6df"/>
 </g>
 <path d="m481.82 354.42c5.0117-3.4609 10.371-6.668 16.031-9.6328l-7.6328-7.6406c-3.543-3.5508-9.2969-3.5508-12.84 0-3.543 3.543-3.543 9.2969 0 12.82z" fill="#fff6df"/>
 <path d="m740.36 607.51c0 23.512-20.609 42.574-46.031 42.574s-46.031-19.062-46.031-42.574c0-23.512 20.609-42.57 46.031-42.57s46.031 19.059 46.031 42.57" fill="#fff6df"/>
 <path d="m553.25 607.51c0 23.512-20.613 42.574-46.043 42.574-25.426 0-46.039-19.062-46.039-42.574 0-23.512 20.613-42.57 46.039-42.57 25.43 0 46.043 19.059 46.043 42.57" fill="#fff6df"/>
</svg>
