<?xml version="1.0" encoding="UTF-8"?>
<svg width="1200pt" height="1200pt" version="1.1" viewBox="0 0 1200 1200" xmlns="http://www.w3.org/2000/svg">
 <g>
  <rect width="1200" height="1200" fill="#fc3"/>
  <path d="m635.46 649.66c13.133 6.457 23.246 15.047 30.625 25.117 24.621 14.082 41.094 38.148 51.027 70.234 7.0234 84.465 31.836 154.91 71.762 213.39 2.2891 3.3633 6.8945 4.2305 10.258 1.9336 3.3672-2.2969 4.2227-6.8906 1.9336-10.254-38.715-56.707-62.613-125.09-69.297-207.07-0.046875-0.52734-0.14844-1.0508-0.29688-1.5547-15.586-50.957-45.949-83.773-95.48-93.051-0.17969 0.42578-0.35547 0.84375-0.53125 1.2578zm-101.54 25.117c7.3789-10.07 17.504-18.66 30.625-25.117-0.17578-0.41406-0.35156-0.83203-0.53125-1.2578-49.535 9.2773-79.895 42.094-95.48 93.051-0.14844 0.50391-0.25391 1.0273-0.29688 1.5547-6.6875 81.984-30.582 150.36-69.297 207.07-2.2891 3.3633-1.4336 7.957 1.9336 10.254 3.3633 2.2969 7.9688 1.4297 10.258-1.9336 39.926-58.477 64.738-128.92 71.762-213.38 9.9336-32.086 26.406-56.156 51.027-70.238zm66.078 173.28c41.227-26.027 68.961-71.434 72.531-112.66 3.5742-41.219-17.031-78.254-72.531-87.531-110.98 18.555-82.434 148.14 0 200.19zm20.918-46.809c17.621-16.613 29.605-38.406 33.371-59.363 0.72266-4.0117-1.9492-7.8477-5.9648-8.5703-4-0.71875-7.8516 1.9492-8.5742 5.9609-3.2461 18.113-13.727 36.875-28.957 51.234-2.9688 2.793-3.1016 7.4688-0.3125 10.434 2.7891 2.9609 7.4688 3.1016 10.438 0.30469zm33.254-87.156c-1.1094-5.2109-2.8945-10.18-5.3594-14.816-1.918-3.5938-6.3906-4.957-9.9766-3.0391-3.6016 1.9141-4.9609 6.3867-3.043 9.9844 1.8164 3.418 3.1172 7.0938 3.9297 10.941 0.85547 3.9844 4.7812 6.5312 8.7656 5.6836 3.9844-0.84375 6.5234-4.7695 5.6836-8.7539zm-81.52-67.988c-3.0703-7.0664-4.8555-15.41-4.8555-24.344 0-25.461 14.434-46.129 32.203-46.129 17.773 0 32.207 20.668 32.207 46.129 0 8.9336-1.7695 17.277-4.8555 24.344-7.7188-3.0156-16.34-5.3711-25.887-6.9688-0.97656-0.16016-1.9492-0.16016-2.9258 0-9.5469 1.5977-18.168 3.9531-25.887 6.9688zm-13.582-28.867c0.32813-5.1875 1.168-10.156 2.4648-14.812-23.672 0.74609-48.043-5.832-73.074-18.574-2.3164-1.1836-5.0938-1.0508-7.293 0.34375-47.762 30.27-105.64 42.254-170.14 42.371-4.0742 0.007813-7.3828 3.3203-7.3672 7.3945 0 4.0703 3.3203 7.375 7.3945 7.3672 65.934-0.12109 125.16-12.383 174.45-42.457 25.121 12.238 49.684 18.578 73.562 18.367zm79.395-14.812c1.3008 4.6562 2.1406 9.6289 2.4648 14.812 23.883 0.21094 48.445-6.1289 73.566-18.367 49.281 30.074 108.53 42.336 174.45 42.457 4.0742 0.007813 7.3945-3.2969 7.3945-7.3672 0.015625-4.0742-3.293-7.3867-7.3672-7.3945-64.5-0.11719-122.38-12.102-170.14-42.371-2.1992-1.3945-4.9766-1.5273-7.293-0.34375-25.031 12.742-49.402 19.32-73.078 18.574zm-55.332-30.891c-11.203-7.0508-18.82-20.898-18.82-36.812 0-23.059 16-41.777 35.688-41.777 19.691 0 35.691 18.719 35.691 41.777 0 15.914-7.6172 29.762-18.82 36.812-5.1797-3.0938-10.906-4.7617-16.871-4.7617-5.9609 0-11.688 1.668-16.867 4.7617zm-26.438-48.68c1.0469-4.9688 2.7461-9.6406 4.9727-13.898-28.25-10.777-47.586-27.93-57.562-51.918-0.87109-2.1055-2.6719-3.6875-4.8711-4.2891-39.188-10.676-75.867-31.926-110.05-63.867-2.9648-2.7812-7.6445-2.6211-10.422 0.35547-2.7891 2.9727-2.625 7.6484 0.35547 10.43 35.086 32.789 72.723 54.809 112.81 66.363 11.852 25.953 33.43 44.941 64.766 56.824zm81.637-13.898c2.2305 4.2617 3.9258 8.9297 4.9766 13.898 31.336-11.883 52.914-30.875 64.766-56.824 40.09-11.555 77.727-33.574 112.83-66.363 2.9648-2.7812 3.1289-7.457 0.33594-10.43-2.7734-2.9766-7.4531-3.1367-10.418-0.35547-34.184 31.941-70.863 53.191-110.05 63.867-2.1992 0.60156-4 2.1836-4.8711 4.2891-9.9805 23.988-29.312 41.141-57.566 51.918zm-68.531-11.395c-14.891-7.3906-29.473-18.293-28.988-27.246 2.3477-43.094 19.781-76.988 59.188-97.48 39.41 20.492 56.844 54.387 59.188 97.48 0.48828 8.9531-14.094 19.855-28.988 27.246-8-8.3906-18.672-13.473-30.199-13.473s-22.199 5.082-30.199 13.473zm53.535-120.41c7.75 5.9336 14.379 12.543 20 19.77 26.438-8.7695 53.832-10.918 81.684-9.7461 2.3008 0.097656 4.5-0.87891 5.9766-2.6328 1.4609-1.7578 2.0391-4.1016 1.5508-6.3398-10.109-45.605-3.1445-88.52 23.305-128.36 2.2578-3.3945 1.3281-7.9766-2.0664-10.23-3.3945-2.2539-7.9688-1.3281-10.227 2.0664-26.996 40.664-35.395 84.266-27.262 130.48-26.555-0.39844-52.637 2.4258-77.918 10.855 0.19141-5.8672-0.69531-11.449-2.6875-16.711-3.4375-9.0117-10.215-17.195-21.359-24.105-3.4531-2.1484-8.0117-1.082-10.152 2.375-2.1562 3.4609-1.0781 8.0156 2.375 10.164 7.8672 4.8867 12.914 10.453 15.336 16.82 0.69531 1.8125 1.168 3.6797 1.4453 5.5938zm-66.668 19.77c5.6211-7.2266 12.25-13.836 20-19.77 0.27734-1.9141 0.75-3.7812 1.4453-5.5938 2.418-6.3672 7.4688-11.934 15.336-16.82 3.4688-2.1484 4.5312-6.7031 2.375-10.164-2.1406-3.457-6.6992-4.5234-10.156-2.375-11.141 6.9102-17.918 15.094-21.355 24.105-1.9922 5.2617-2.8789 10.844-2.6875 16.711-25.285-8.4297-51.363-11.254-77.918-10.855 8.1328-46.211-0.26562-89.812-27.262-130.48-2.2578-3.3945-6.832-4.3203-10.23-2.0664-3.3945 2.2539-4.3242 6.8359-2.0664 10.23 26.453 39.836 33.418 82.75 23.309 128.36-0.48828 2.2383 0.089844 4.582 1.5508 6.3398 1.4727 1.7539 3.6719 2.7305 5.9766 2.6328 27.852-1.1719 55.246 0.97656 81.684 9.7461z" fill="#fff6df" fill-rule="evenodd"/>
 </g>
</svg>
