<?xml version="1.0" encoding="UTF-8"?>
<svg width="1200pt" height="1200pt" version="1.1" viewBox="0 0 1200 1200" xmlns="http://www.w3.org/2000/svg">
 <g>
  <rect width="1200" height="1200" fill="#0070c0"/>
  <path d="m611.77 555.96c-3.6914 1.2656-7.6445 1.9531-11.766 1.9531-4.1172 0-8.0703-0.6875-11.746-1.9531v263.48c0 6.4844 5.2539 11.754 11.746 11.754 6.4961 0 11.766-5.2695 11.766-11.754zm-32.367-4.1445c-143.29 86.199-247.57 89.848-322.67 31.723 4.9609-72.07 162.98-51.484 307-87.816v25.902c0 12.375 6.1992 23.309 15.676 29.859zm41.223-0.33203c9.4609-6.5508 15.66-17.484 15.66-29.859v-25.902c144.02 36.332 302.04 15.746 307 87.816-75.102 58.125-179.38 54.477-322.66-31.723zm204.63 35.816c-34.418 2.0117-74.02-7.1641-119.59-28.719-3.6875-1.7422-8.0859-0.16797-9.8281 3.5156-1.7422 3.6797-0.16406 8.082 3.5117 9.8281 48.266 22.832 90.301 32.242 126.77 30.113 4.0586-0.23828 7.1758-3.7344 6.9219-7.8008-0.21875-4.0664-3.7188-7.1719-7.793-6.9375zm35.734-6.668c-4.3398 1.4258-8.7812 2.6406-13.328 3.6289-3.9844 0.86719-6.5078 4.8047-5.6367 8.7852 0.85547 3.9766 4.7969 6.5039 8.7812 5.6367 5.0469-1.0977 9.9766-2.4453 14.789-4.0273 3.8672-1.2734 5.9766-5.4492 4.707-9.3164-1.2695-3.8711-5.4453-5.9766-9.3125-4.707zm-233.56-115.43c0-15.141-12.281-27.434-27.426-27.434-15.141 0-27.422 12.293-27.422 27.434v56.426c0 15.141 12.281 27.43 27.422 27.43 15.145 0 27.426-12.289 27.426-27.43zm-60.887-16.195c-23.246-20.215-38.242-45.715-39.746-79.879-0.17969-4.0703 2.9805-7.5195 7.0547-7.6953 4.0742-0.17969 7.5117 2.9805 7.6914 7.0469 1.1484 26.059 11.438 46.258 27.586 62.703v14.961c-0.57812 0.9375-1.125 1.9023-1.6094 2.8945l-0.11719 0.22656-0.0625 0.11328-0.042969 0.11719-0.058594 0.10938c-2.2578 4.7266-3.5117 10.016-3.5117 15.598v21.473c-66.496 17.074-136.19 21.77-192.49 28.953-50.184-6.1289-92.941-20.113-125.47-44.941 35.879-83.285 198.12-22.016 320.78-21.68zm65.949 0.019532 0.03125 0.066406 0.027344 0.046875 0.03125 0.058594 0.027344 0.058593 0.058593 0.11719 0.046876 0.11719 0.058593 0.11328c2.2578 4.7266 3.5117 10.016 3.5117 15.598v21.387c66.641 17.105 136.47 21.789 192.82 28.996 50.055-6.1484 92.695-20.125 125.14-44.898-35.883-83.285-198.12-22.016-320.78-21.68 23.25-20.215 38.246-45.715 39.75-79.879 0.17578-4.0703-2.9805-7.5195-7.0547-7.6953-4.0742-0.17969-7.5117 2.9805-7.6914 7.0469-1.1484 26.059-11.438 46.258-27.586 62.703v14.961c0.57812 0.93359 1.1094 1.8945 1.6094 2.8828zm-332.1 17.559c4.3398-1.4258 8.7812-2.6367 13.328-3.6289 3.9844-0.86719 6.5117-4.8008 5.6406-8.7812-0.85547-3.9805-4.7969-6.5078-8.7852-5.6406-5.0469 1.1016-9.9766 2.4453-14.789 4.0312-3.8672 1.2695-5.9766 5.4453-4.707 9.3125 1.2695 3.8711 5.4453 5.9805 9.3125 4.707zm35.734-6.668c18.656-1.0898 38.848 1.1172 60.707 6.8008 3.9414 1.0234 7.9727-1.3438 9.0039-5.2852 1.0195-3.9414-1.3438-7.9766-5.2812-9-23.516-6.1133-45.227-8.4219-65.301-7.25-4.0586 0.23438-7.1719 3.7305-6.9375 7.7969 0.23828 4.0664 3.7344 7.1758 7.8086 6.9375zm241.86-23.551c6.1094-4.6719 13.742-7.4531 22.02-7.4531 8.2812 0 15.914 2.7812 22.023 7.4531v-17.328c0-12.152-9.875-22.02-22.023-22.02-12.145 0-22.02 9.8672-22.02 22.02z" fill="#fff6df" fill-rule="evenodd"/>
 </g>
</svg>
